<svg width="48" height="48" viewBox="0 0 48 48" fill="none" xmlns="http://www.w3.org/2000/svg">
<g filter="url(#filter0_d_237_4412)">
<path d="M24 -8.74228e-07C29.3043 -1.10609e-06 34.3914 2.10713 38.1421 5.85786C41.8929 9.60859 44 14.6957 44 20C44 25.3043 41.8929 30.3914 38.1421 34.1421C34.3914 37.8929 29.3043 40 24 40C18.6957 40 13.6086 37.8929 9.85786 34.1421C6.10714 30.3914 4 25.3043 4 20C4 14.6957 6.10714 9.60859 9.85786 5.85786C13.6086 2.10714 18.6957 -6.42368e-07 24 -8.74228e-07ZM15.25 18.75C14.9185 18.75 14.6005 18.8817 14.3661 19.1161C14.1317 19.3505 14 19.6685 14 20C14 20.3315 14.1317 20.6495 14.3661 20.8839C14.6005 21.1183 14.9185 21.25 15.25 21.25L29.7325 21.25L24.365 26.615C24.1303 26.8497 23.9984 27.1681 23.9984 27.5C23.9984 27.8319 24.1303 28.1503 24.365 28.385C24.5997 28.6197 24.9181 28.7516 25.25 28.7516C25.5819 28.7516 25.9003 28.6197 26.135 28.385L33.635 20.885C33.7514 20.7689 33.8438 20.6309 33.9068 20.4791C33.9698 20.3272 34.0022 20.1644 34.0022 20C34.0022 19.8356 33.9698 19.6728 33.9068 19.5209C33.8438 19.3691 33.7514 19.2311 33.635 19.115L26.135 11.615C25.9003 11.3803 25.5819 11.2484 25.25 11.2484C24.9181 11.2484 24.5997 11.3803 24.365 11.615C24.1303 11.8497 23.9984 12.1681 23.9984 12.5C23.9984 12.8319 24.1303 13.1503 24.365 13.385L29.7325 18.75L15.25 18.75Z" fill="white"/>
</g>
<defs>
<filter id="filter0_d_237_4412" x="0" y="0" width="48" height="48" filterUnits="userSpaceOnUse" color-interpolation-filters="sRGB">
<feFlood flood-opacity="0" result="BackgroundImageFix"/>
<feColorMatrix in="SourceAlpha" type="matrix" values="0 0 0 0 0 0 0 0 0 0 0 0 0 0 0 0 0 0 127 0" result="hardAlpha"/>
<feOffset dy="4"/>
<feGaussianBlur stdDeviation="2"/>
<feComposite in2="hardAlpha" operator="out"/>
<feColorMatrix type="matrix" values="0 0 0 0 0 0 0 0 0 0 0 0 0 0 0 0 0 0 0.25 0"/>
<feBlend mode="normal" in2="BackgroundImageFix" result="effect1_dropShadow_237_4412"/>
<feBlend mode="normal" in="SourceGraphic" in2="effect1_dropShadow_237_4412" result="shape"/>
</filter>
</defs>
</svg>
