<svg width="169" height="141" viewBox="0 0 169 141" fill="none" xmlns="http://www.w3.org/2000/svg">
<path d="M168.514 64.5815C169.349 60.0049 166.846 54.9199 162.675 51.8695L162.119 51.6148C161.841 51.36 161.841 51.36 161.563 51.36L161.006 51.1064C161.006 51.1064 160.728 51.1064 160.728 50.8516L159.894 50.598C159.616 50.3432 159.06 50.3432 158.504 50.0896C151.552 48.0549 143.765 48.8181 136.535 49.5812C134.867 49.8349 119.294 49.8349 119.017 50.8517L121.519 43.4784C122.91 39.41 124.022 35.5965 125.412 31.5284C127.36 25.6803 127.915 21.1036 127.36 16.5269C126.525 10.9334 122.91 5.59355 117.627 2.54321C114.568 0.763253 111.231 0.00012207 107.894 0.00012207H107.061C103.723 0.254877 101.776 1.78007 101.499 4.83165C101.221 8.64516 100.664 12.205 100.108 15.5102C98.9959 21.3583 97.3279 26.1887 94.8252 30.2571C93.4338 32.5454 91.7658 34.8337 89.5409 36.6138C86.7605 39.1568 83.9801 42.2073 80.6428 45.5134L73.4127 53.1404C71.7447 54.9203 70.0754 56.7002 68.1296 58.2254C67.8518 58.4801 67.295 58.9885 66.7394 59.4969C65.627 60.5137 63.959 61.2769 62.5674 62.04C61.734 62.2936 60.6216 62.802 58.9524 63.0568C52.8347 64.582 49.2209 66.1083 48.9416 69.6669C48.9416 71.4469 48.6638 73.2267 48.6638 74.753V132.471H58.6746C62.0119 132.979 65.3493 133.487 69.7977 134.251L71.7447 134.504C80.3652 135.776 88.4287 137.047 96.2157 137.809C115.682 139.844 139.318 145.183 153.775 128.911C159.615 122.3 160.172 112.893 161.562 104.756C164.065 91.2809 166.568 78.0592 168.514 64.5815L168.514 64.5815Z" fill="black"/>
<path d="M168.514 64.5815C169.349 60.0049 166.846 54.9199 162.675 51.8695L162.119 51.6148C161.841 51.36 161.841 51.36 161.563 51.36L161.006 51.1064C161.006 51.1064 160.728 51.1064 160.728 50.8516L159.894 50.598C159.616 50.3432 159.06 50.3432 158.504 50.0896C151.552 48.0549 143.765 48.8181 136.535 49.5812C134.867 49.8349 119.294 49.8349 119.017 50.8517L121.519 43.4784C122.91 39.41 124.022 35.5965 125.412 31.5284C127.36 25.6803 127.915 21.1036 127.36 16.5269C126.525 10.9334 122.91 5.59355 117.627 2.54321C114.568 0.763253 111.231 0.00012207 107.894 0.00012207H107.061C103.723 0.254877 101.776 1.78007 101.499 4.83165C101.221 8.64516 100.664 12.205 100.108 15.5102C98.9959 21.3583 97.3279 26.1887 94.8252 30.2571C93.4338 32.5454 91.7658 34.8337 89.5409 36.6138C86.7605 39.1568 83.9801 42.2073 80.6428 45.5134L73.4127 53.1404C71.7447 54.9203 70.0754 56.7002 68.1296 58.2254C67.8518 58.4801 67.295 58.9885 66.7394 59.4969C65.627 60.5137 63.959 61.2769 62.5674 62.04C61.734 62.2936 60.6216 62.802 58.9524 63.0568C52.8347 64.582 49.2209 66.1083 48.9416 69.6669C48.9416 71.4469 48.6638 73.2267 48.6638 74.753V132.471H58.6746C62.0119 132.979 65.3493 133.487 69.7977 134.251L71.7447 134.504C80.3652 135.776 88.4287 137.047 96.2157 137.809C115.682 139.844 139.318 145.183 153.775 128.911C159.615 122.3 160.172 112.893 161.562 104.756C164.065 91.2809 166.568 78.0592 168.514 64.5815L168.514 64.5815Z" fill="url(#paint0_linear_2402_343)"/>
<path d="M31.979 137.808H6.11773C2.78039 137.808 0 135.266 0 132.215V61.531C0 58.4795 2.78045 55.9363 6.11773 55.9363H31.979C35.3151 55.9363 38.0967 58.4794 38.0967 61.531V132.215C38.0967 135.266 35.5929 137.808 31.979 137.808Z" fill="black"/>
<path d="M31.979 137.808H6.11773C2.78039 137.808 0 135.266 0 132.215V61.531C0 58.4795 2.78045 55.9363 6.11773 55.9363H31.979C35.3151 55.9363 38.0967 58.4794 38.0967 61.531V132.215C38.0967 135.266 35.5929 137.808 31.979 137.808Z" fill="url(#paint1_linear_2402_343)"/>
<defs>
<linearGradient id="paint0_linear_2402_343" x1="48.6638" y1="0.00012207" x2="165.114" y2="7.59099" gradientUnits="userSpaceOnUse">
<stop stop-color="#EEA657"/>
<stop offset="1" stop-color="#EA674B"/>
</linearGradient>
<linearGradient id="paint1_linear_2402_343" x1="0" y1="55.9363" x2="37.077" y2="57.251" gradientUnits="userSpaceOnUse">
<stop stop-color="#EEA657"/>
<stop offset="1" stop-color="#EA674B"/>
</linearGradient>
</defs>
</svg>
